<svg version="1.1" id="Layer_1" xmlns="http://www.w3.org/2000/svg" xmlns:xlink="http://www.w3.org/1999/xlink" x="0px" y="0px"
	 width="100%" viewBox="0 0 64 64" enable-background="new 0 0 64 64" xml:space="preserve">
<path fill="#000000" opacity="1.000000" stroke="none" 
	d="
M1.000000,26.000000 
	C1.000000,17.698776 1.000000,9.397554 1.000000,1.048166 
	C22.218933,1.048166 43.437992,1.048166 65.000000,1.048166 
	C65.000000,9.017622 65.000000,17.040133 64.771744,25.885201 
	C63.788273,26.379911 63.033062,26.052067 62.223698,25.734341 
	C62.169548,25.744461 62.183712,25.853724 62.297161,25.508299 
	C60.905827,24.126394 59.401047,23.089914 57.929726,22.049067 
	C57.963192,22.044701 57.964264,22.112186 57.902004,21.771248 
	C56.192295,20.304808 54.544846,19.179306 52.930695,18.049177 
	C52.963993,18.044550 52.964931,18.111780 52.902500,17.770660 
	C51.190845,16.306173 49.541622,15.182808 47.925888,14.054741 
	C47.959381,14.050038 47.961357,14.117647 47.899452,13.774775 
	C44.604729,11.280460 41.371914,9.129020 37.982300,6.668520 
	C34.105293,2.983214 30.680088,2.799054 27.223791,6.916679 
	C25.805864,8.605914 23.758039,9.766418 21.672152,11.110006 
	C20.912718,11.417557 20.477884,11.782540 20.042624,12.104895 
	C20.042196,12.062266 20.127455,12.061586 19.787449,12.109378 
	C17.985218,13.480635 16.522993,14.804100 15.059857,16.093237 
	C15.058946,16.058908 15.127547,16.062195 14.787477,16.109489 
	C12.984138,17.479692 11.520870,18.802603 10.055992,20.091358 
	C10.054382,20.057205 10.122714,20.059784 9.785656,20.106346 
	C8.315243,21.139975 7.181887,22.127041 6.043185,23.081673 
	C6.037839,23.049240 6.103549,23.051373 5.812111,23.082050 
	C5.371691,23.447515 5.222709,23.782305 5.064507,24.085537 
	C5.055288,24.053982 5.118257,24.072897 4.824354,24.093271 
	C4.377112,24.448263 4.223773,24.782881 4.092755,25.072723 
	C4.115076,25.027950 4.204438,25.072966 3.802424,25.140312 
	C2.600274,25.471771 1.800137,25.735886 1.000000,26.000000 
z"/>
<path fill="#000000" opacity="1.000000" stroke="none" 
	d="
M65.000000,28.000000 
	C65.000000,40.333412 65.000000,52.666824 65.000000,65.000000 
	C62.258919,65.000000 59.620510,65.000000 56.171173,64.689209 
	C56.240162,62.039188 57.805206,59.721432 57.879318,57.356934 
	C58.172932,47.989796 57.999989,38.608032 57.999989,29.646408 
	C60.116440,28.983475 61.613300,28.514614 63.485439,27.867901 
	C64.240479,27.793365 64.620239,27.896683 65.000000,28.000000 
z"/>
<path fill="#000000" opacity="1.000000" stroke="none" 
	d="
M10.000000,65.000000 
	C7.028834,65.000000 4.057668,65.000000 1.000000,65.000000 
	C1.000000,52.979218 1.000000,40.958267 1.207543,28.107708 
	C1.906958,27.533627 2.398830,27.789152 3.126810,28.384632 
	C4.802250,28.922276 6.241583,29.119967 8.000077,29.361494 
	C8.000077,38.965408 7.904890,48.443157 8.086676,57.915588 
	C8.119911,59.647423 9.281015,61.357609 10.106767,63.457253 
	C10.194698,64.224480 10.097348,64.612236 10.000000,65.000000 
z"/>
<path fill="#3662CD" opacity="1.000000" stroke="none" 
	d="
M10.468657,65.000000 
	C10.097348,64.612236 10.194698,64.224480 10.304548,63.255325 
	C10.448893,62.539303 10.580737,62.404675 11.125299,62.361263 
	C24.638742,62.496094 37.739624,62.515423 50.840099,62.598751 
	C54.562325,62.622429 56.274250,61.046169 56.167614,57.191433 
	C56.007153,51.391056 56.245941,45.579777 56.092670,39.779007 
	C55.994419,36.060715 55.496269,32.352993 55.220856,28.527327 
	C55.264320,28.414120 55.285179,28.172377 55.305340,27.969074 
	C55.325500,27.765770 55.217812,27.371613 55.641045,27.349182 
	C58.039825,27.208502 60.015369,27.090252 62.168556,27.160049 
	C62.600857,27.580648 62.855507,27.813200 63.110161,28.045753 
	C61.613300,28.514614 60.116440,28.983475 57.999989,29.646408 
	C57.999989,38.608032 58.172932,47.989796 57.879318,57.356934 
	C57.805206,59.721432 56.240162,62.039188 55.680122,64.689209 
	C40.979103,65.000000 25.958210,65.000000 10.468657,65.000000 
z"/>
<path fill="#3E66CA" opacity="1.000000" stroke="none" 
	d="
M2.890702,28.044680 
	C2.398830,27.789152 1.906958,27.533627 1.207543,27.639050 
	C1.000000,27.555555 1.000000,27.111111 1.000000,26.333332 
	C1.800137,25.735886 2.600274,25.471771 3.986550,25.442474 
	C4.385397,26.109470 4.198103,26.541651 3.832744,27.161137 
	C3.400019,27.580521 3.145360,27.812599 2.890702,28.044680 
z"/>
<path fill="#3E64CA" opacity="1.000000" stroke="none" 
	d="
M63.485439,27.867901 
	C62.855507,27.813200 62.600857,27.580648 62.163559,26.830456 
	C62.079891,26.116617 62.178867,25.920420 62.277847,25.724222 
	C63.033062,26.052067 63.788273,26.379911 64.771744,26.353878 
	C65.000000,26.444445 65.000000,26.888887 65.000000,27.666666 
	C64.620239,27.896683 64.240479,27.793365 63.485439,27.867901 
z"/>
<path fill="#F9A7A7" opacity="1.000000" stroke="none" 
	d="
M62.223698,25.734341 
	C62.178867,25.920420 62.079891,26.116617 61.985912,26.642408 
	C60.015369,27.090252 58.039825,27.208502 55.170002,27.233364 
	C39.773705,27.217192 25.271685,27.294407 10.347404,27.349182 
	C7.953699,27.209105 5.982255,27.091467 4.010811,26.973831 
	C4.198103,26.541651 4.385397,26.109470 4.388564,25.375128 
	C4.204438,25.072966 4.115076,25.027950 4.442564,25.154875 
	C4.886120,24.878832 5.002188,24.475864 5.118257,24.072897 
	C5.118257,24.072897 5.055288,24.053982 5.419256,24.159687 
	C5.889998,23.860720 5.996773,23.456047 6.103548,23.051373 
	C6.103549,23.051373 6.037839,23.049240 6.402695,23.225805 
	C7.885938,22.288174 9.004326,21.173979 10.122713,20.059784 
	C10.122714,20.059784 10.054382,20.057205 10.408037,20.227240 
	C12.216976,18.952248 13.672262,17.507221 15.127547,16.062195 
	C15.127547,16.062195 15.058946,16.058908 15.412432,16.226452 
	C17.219763,14.949860 18.673609,13.505723 20.127455,12.061586 
	C20.127455,12.061586 20.042196,12.062266 20.306581,12.328072 
	C21.046228,12.118398 21.521490,11.642920 21.996754,11.167439 
	C23.758039,9.766418 25.805864,8.605914 27.223791,6.916679 
	C30.680088,2.799054 34.105293,2.983214 38.036995,7.002317 
	C41.486111,9.802664 44.723736,11.960155 47.961357,14.117647 
	C47.961357,14.117647 47.959381,14.050038 47.815506,14.412458 
	C49.436066,15.887180 51.200500,16.999481 52.964931,18.111780 
	C52.964931,18.111780 52.963993,18.044550 52.823692,18.407505 
	C54.443684,19.884369 56.203972,20.998278 57.964264,22.112186 
	C57.964264,22.112186 57.963192,22.044701 57.822823,22.401457 
	C59.182877,23.790051 60.683292,24.821888 62.183712,25.853724 
	C62.183712,25.853724 62.169548,25.744461 62.223698,25.734341 
z"/>
<path fill="#3E64CA" opacity="1.000000" stroke="none" 
	d="
M47.899452,13.774775 
	C44.723736,11.960155 41.486111,9.802664 38.193794,7.311376 
	C41.371914,9.129020 44.604729,11.280460 47.899452,13.774775 
z"/>
<path fill="#3E64CA" opacity="1.000000" stroke="none" 
	d="
M52.902500,17.770660 
	C51.200500,16.999481 49.436066,15.887180 47.782017,14.417161 
	C49.541622,15.182808 51.190845,16.306173 52.902500,17.770660 
z"/>
<path fill="#3E64CA" opacity="1.000000" stroke="none" 
	d="
M57.902004,21.771248 
	C56.203972,20.998278 54.443684,19.884369 52.790394,18.412132 
	C54.544846,19.179306 56.192295,20.304808 57.902004,21.771248 
z"/>
<path fill="#3E64CA" opacity="1.000000" stroke="none" 
	d="
M62.297161,25.508299 
	C60.683292,24.821888 59.182877,23.790051 57.789360,22.405823 
	C59.401047,23.089914 60.905827,24.126394 62.297161,25.508299 
z"/>
<path fill="#3E66CA" opacity="1.000000" stroke="none" 
	d="
M19.787449,12.109378 
	C18.673609,13.505723 17.219763,14.949860 15.413343,16.260780 
	C16.522993,14.804100 17.985218,13.480635 19.787449,12.109378 
z"/>
<path fill="#3E66CA" opacity="1.000000" stroke="none" 
	d="
M14.787477,16.109489 
	C13.672262,17.507221 12.216976,18.952248 10.409647,20.261393 
	C11.520870,18.802603 12.984138,17.479692 14.787477,16.109489 
z"/>
<path fill="#3E66CA" opacity="1.000000" stroke="none" 
	d="
M9.785656,20.106346 
	C9.004326,21.173979 7.885938,22.288174 6.408041,23.258240 
	C7.181887,22.127041 8.315243,21.139975 9.785656,20.106346 
z"/>
<path fill="#3E66CA" opacity="1.000000" stroke="none" 
	d="
M21.672153,11.110007 
	C21.521490,11.642920 21.046228,12.118398 20.307009,12.370699 
	C20.477884,11.782540 20.912718,11.417557 21.672153,11.110007 
z"/>
<path fill="#3E66CA" opacity="1.000000" stroke="none" 
	d="
M4.824354,24.093271 
	C5.002188,24.475864 4.886120,24.878832 4.420242,25.199650 
	C4.223773,24.782881 4.377112,24.448263 4.824354,24.093271 
z"/>
<path fill="#3E66CA" opacity="1.000000" stroke="none" 
	d="
M5.812110,23.082050 
	C5.996773,23.456047 5.889998,23.860720 5.428475,24.191242 
	C5.222709,23.782305 5.371691,23.447515 5.812110,23.082050 
z"/>
<path fill="#3662CD" opacity="1.000000" stroke="none" 
	d="
M3.832744,27.161137 
	C5.982255,27.091467 7.953699,27.209105 10.296656,27.546848 
	C10.668168,27.766956 10.714533,28.172474 10.725691,28.293438 
	C10.736849,28.414402 10.825669,28.640539 10.578111,28.861732 
	C10.175693,34.545902 9.848757,40.010925 9.913760,45.471283 
	C9.980450,51.073242 10.430380,56.670647 10.712583,62.270042 
	C10.580737,62.404675 10.448893,62.539303 10.119267,62.875862 
	C9.281015,61.357609 8.119911,59.647423 8.086676,57.915588 
	C7.904890,48.443157 8.000077,38.965408 8.000077,29.361494 
	C6.241583,29.119967 4.802250,28.922276 3.126810,28.384632 
	C3.145360,27.812599 3.400019,27.580521 3.832744,27.161137 
z"/>
<path fill="#A3C8FE" opacity="1.000000" stroke="none" 
	d="
M11.125299,62.361263 
	C10.430380,56.670647 9.980450,51.073242 9.913760,45.471283 
	C9.848757,40.010925 10.175693,34.545902 11.050740,28.958872 
	C26.239748,28.770056 40.708569,28.705296 55.177387,28.640533 
	C55.496269,32.352993 55.994419,36.060715 56.092670,39.779007 
	C56.245941,45.579777 56.007153,51.391056 56.167614,57.191433 
	C56.274250,61.046169 54.562325,62.622429 50.840099,62.598751 
	C37.739624,62.515423 24.638742,62.496094 11.125299,62.361263 
M37.887344,40.803116 
	C38.215153,40.916023 38.542965,41.028931 38.891315,41.875237 
	C39.150555,42.557949 39.409790,43.240662 39.774548,44.055775 
	C39.774548,44.055775 39.936752,44.007267 40.002834,44.002605 
	C40.002834,44.002605 39.989101,43.937798 39.417736,43.837753 
	C38.628624,44.273396 37.839516,44.709038 37.020046,45.935162 
	C36.985703,46.991127 36.951359,48.047092 36.298191,49.288349 
	C34.869984,50.239376 33.441776,51.190403 31.495235,52.004227 
	C31.322205,51.958363 31.149174,51.912495 30.941700,51.253372 
	C30.339418,50.479828 29.737137,49.706287 29.066195,48.209446 
	C29.065418,47.482891 29.064642,46.756336 29.513933,45.605618 
	C28.296873,44.548004 27.079811,43.490395 26.105255,41.776577 
	C26.386538,41.140278 26.667820,40.503983 26.957668,39.943810 
	C26.957668,39.943810 26.881508,39.952068 27.485464,39.730007 
	C28.372643,38.809334 29.259821,37.888660 30.465466,36.637756 
	C30.506126,36.189575 30.546789,35.741398 30.587452,35.293217 
	C30.090342,35.496113 29.593229,35.699009 28.928434,36.306633 
	C28.805725,36.583275 28.615868,36.801506 27.768835,36.759892 
	C27.209990,36.486534 26.651144,36.213177 25.843401,35.266777 
	C23.886431,34.773521 21.929462,34.280266 19.972490,33.787010 
	C19.700266,35.843159 19.428041,37.899307 19.051102,40.586651 
	C19.019825,41.011997 18.988548,41.437344 18.376049,42.282578 
	C17.090141,43.155926 15.804234,44.029278 15.632775,44.145725 
	C14.159330,47.444298 13.150603,49.702515 12.191573,52.525616 
	C12.434749,53.028278 12.677924,53.530945 13.262410,54.503242 
	C13.804479,54.688465 14.346546,54.873692 15.571088,55.550587 
	C20.078770,55.386993 24.586451,55.223400 29.735979,55.049564 
	C30.163916,55.040924 30.591854,55.032280 31.023960,54.967529 
	C31.023960,54.967529 30.969877,54.979023 31.072823,55.689201 
	C32.051411,56.870090 33.029999,58.050976 33.621529,58.764793 
	C35.911297,57.614799 37.451260,56.289463 39.106590,56.124950 
	C42.549957,55.782734 46.056599,56.133633 49.532753,56.037575 
	C50.960392,55.998123 52.376453,55.539898 53.797783,55.272163 
	C53.444660,53.588699 53.193138,51.875515 52.711571,50.229633 
	C52.163921,48.357880 51.410744,46.546261 50.584911,44.260048 
	C49.851715,43.988232 48.477699,43.478840 46.815437,42.449184 
	C46.509277,41.939625 46.203121,41.430069 46.251450,40.313492 
	C48.087566,38.187244 48.813789,35.918350 46.211281,33.983414 
	C43.358986,31.862762 41.387005,33.405254 39.385273,36.217506 
	C38.955467,36.573814 38.525661,36.930119 37.356789,37.454380 
	C36.907448,37.272327 36.458107,37.090275 36.151772,36.420361 
	C35.979584,36.057335 35.807400,35.694313 35.635212,35.331287 
	C35.452839,35.877884 35.270466,36.424477 35.136848,37.577324 
	C35.619293,38.198219 36.101734,38.819111 36.864307,39.793449 
	C37.056656,40.027973 37.275810,40.233982 37.887344,40.803116 
z"/>
<path fill="#807BBD" opacity="1.000000" stroke="none" 
	d="
M10.714533,28.172474 
	C10.714533,28.172474 10.668168,27.766956 10.718916,27.569290 
	C25.271685,27.294407 39.773705,27.217192 54.746765,27.255795 
	C55.217812,27.371613 55.325500,27.765770 54.808662,27.926901 
	C39.766060,28.116179 25.240297,28.144327 10.714533,28.172474 
z"/>
<path fill="#5E87DF" opacity="1.000000" stroke="none" 
	d="
M10.725691,28.293438 
	C25.240297,28.144327 39.766060,28.116179 54.788502,28.130203 
	C55.285179,28.172377 55.264320,28.414120 55.220856,28.527327 
	C40.708569,28.705296 26.239748,28.770056 11.298299,28.737679 
	C10.825669,28.640539 10.736849,28.414402 10.725691,28.293438 
z"/>
<path fill="#426DCB" opacity="1.000000" stroke="none" 
	d="
M47.103683,42.969448 
	C48.477699,43.478840 49.851715,43.988232 50.584911,44.260048 
	C51.410744,46.546261 52.163921,48.357880 52.711571,50.229633 
	C53.193138,51.875515 53.444660,53.588699 53.797783,55.272163 
	C52.376453,55.539898 50.960392,55.998123 49.532753,56.037575 
	C46.056599,56.133633 42.549957,55.782734 39.106590,56.124950 
	C37.451260,56.289463 35.911297,57.614799 33.621529,58.764793 
	C33.029999,58.050976 32.051411,56.870090 31.288460,55.156639 
	C31.673922,53.796528 31.843744,52.968979 32.013565,52.141426 
	C33.441776,51.190403 34.869984,50.239376 36.767807,49.456284 
	C37.987339,49.539352 38.737255,49.454479 39.695198,49.384903 
	C39.903221,49.400200 40.298824,49.267632 40.371181,49.273479 
	C40.443539,49.279327 40.584206,49.243374 40.936119,49.450809 
	C46.894917,50.149441 46.894917,50.149441 47.103683,42.969448 
z"/>
<path fill="#3C66CD" opacity="1.000000" stroke="none" 
	d="
M12.141876,51.960732 
	C13.150603,49.702515 14.159330,47.444298 15.632775,44.145725 
	C15.804234,44.029278 17.090141,43.155926 18.674004,42.516502 
	C19.166937,50.176735 19.724812,50.616306 27.181065,49.238518 
	C27.829037,49.118786 28.483440,49.033844 29.134855,48.932739 
	C29.737137,49.706287 30.339418,50.479828 30.492088,51.604778 
	C24.075609,51.957703 18.108744,51.959217 12.141876,51.960732 
z"/>
<path fill="#446DC9" opacity="1.000000" stroke="none" 
	d="
M29.100525,48.571091 
	C28.483440,49.033844 27.829037,49.118786 27.181065,49.238518 
	C19.724812,50.616306 19.166937,50.176735 18.964615,42.306561 
	C18.988548,41.437344 19.019825,41.011997 19.437435,40.281532 
	C21.570570,39.991173 23.317371,40.005936 25.041470,39.992653 
	C25.018768,39.964615 24.947046,39.956707 24.863756,40.345860 
	C24.864887,41.170769 24.949308,41.606522 25.021862,42.015343 
	C25.009996,41.988407 25.068777,41.991653 24.685574,41.885014 
	C24.194376,42.212746 24.086380,42.647114 23.981823,43.047562 
	C23.985260,43.013638 24.052391,43.025627 23.895611,42.702793 
	C23.251198,42.996017 22.763561,43.612072 22.275925,44.228130 
	C22.840994,44.126408 23.406063,44.024681 24.254423,44.118111 
	C26.046432,44.885433 27.555149,45.457607 29.063866,46.029778 
	C29.064642,46.756336 29.065418,47.482891 29.100525,48.571091 
z"/>
<path fill="#F6CDCF" opacity="1.000000" stroke="none" 
	d="
M39.911900,36.027027 
	C41.387005,33.405254 43.358986,31.862762 46.211281,33.983414 
	C48.813789,35.918350 48.087566,38.187244 45.877892,40.625313 
	C45.504337,40.937134 45.110172,40.950981 44.975838,40.755188 
	C44.530571,40.681725 44.219639,40.804054 43.940815,40.924259 
	C43.972919,40.922138 43.949730,40.862110 43.784798,40.610199 
	C42.748817,39.886261 41.877769,39.414227 40.961777,38.781113 
	C40.916832,38.620033 40.691513,38.372856 40.598156,38.078705 
	C40.307167,37.198715 40.109531,36.612869 39.911900,36.027027 
z"/>
<path fill="#F6CDCF" opacity="1.000000" stroke="none" 
	d="
M25.064173,40.020695 
	C23.317371,40.005936 21.570570,39.991173 19.489792,39.965935 
	C19.428041,37.899307 19.700266,35.843159 19.972492,33.787010 
	C21.929462,34.280266 23.886431,34.773521 25.859558,35.945518 
	C25.605202,37.756401 25.334686,38.888550 25.064173,40.020695 
z"/>
<path fill="#69D9DC" opacity="1.000000" stroke="none" 
	d="
M45.110172,40.950981 
	C45.110172,40.950981 45.504337,40.937134 45.700649,40.928822 
	C46.203121,41.430069 46.509277,41.939625 46.959560,42.709316 
	C46.894917,50.149441 46.894917,50.149441 41.003979,49.074928 
	C40.493481,47.506302 40.267036,46.521000 40.066116,45.527546 
	C40.091644,45.519398 40.132587,45.484818 40.142883,45.093781 
	C40.098488,44.447762 40.043793,44.192780 39.989101,43.937798 
	C39.989101,43.937798 40.002834,44.002605 40.261597,44.064987 
	C40.896187,44.012440 41.272011,43.897514 41.809395,43.870197 
	C42.645283,43.699429 43.319614,43.441051 44.067589,42.797272 
	C44.077400,41.895283 44.013565,41.378696 43.949730,40.862110 
	C43.949730,40.862110 43.972919,40.922138 44.240433,40.968929 
	C44.708687,40.994137 44.909431,40.972557 45.110172,40.950981 
z"/>
<path fill="#6BDDDD" opacity="1.000000" stroke="none" 
	d="
M12.166725,52.243172 
	C18.108744,51.959217 24.075609,51.957703 30.509308,51.911407 
	C31.149174,51.912495 31.322205,51.958363 31.754400,52.072826 
	C31.843744,52.968979 31.673922,53.796528 31.236988,54.801552 
	C30.969877,54.979023 31.023960,54.967529 30.684082,54.751747 
	C24.536501,54.368515 18.728800,54.201061 12.921100,54.033607 
	C12.677924,53.530945 12.434749,53.028278 12.166725,52.243172 
z"/>
<path fill="#54A7D6" opacity="1.000000" stroke="none" 
	d="
M13.091755,54.268425 
	C18.728800,54.201061 24.536501,54.368515 30.681995,54.779804 
	C30.591854,55.032280 30.163916,55.040924 28.942997,55.043800 
	C23.729548,55.044998 19.309082,55.051956 14.888615,55.058914 
	C14.346546,54.873692 13.804479,54.688465 13.091755,54.268425 
z"/>
<path fill="#5F8CDE" opacity="1.000000" stroke="none" 
	d="
M15.229851,55.304749 
	C19.309082,55.051956 23.729548,55.044998 28.622074,55.048920 
	C24.586451,55.223400 20.078770,55.386993 15.229851,55.304749 
z"/>
<path fill="#3C66CD" opacity="1.000000" stroke="none" 
	d="
M29.288898,45.817696 
	C27.555149,45.457607 26.046432,44.885433 24.289421,43.895115 
	C24.041128,43.476971 24.052391,43.025627 24.052391,43.025627 
	C24.052391,43.025627 23.985260,43.013638 24.268326,42.976486 
	C24.723852,42.623440 24.896315,42.307545 25.068775,41.991653 
	C25.068777,41.991653 25.009996,41.988407 25.202206,42.170029 
	C25.394415,42.351646 25.862751,42.432781 25.862751,42.432781 
	C27.079811,43.490395 28.296873,44.548004 29.288898,45.817696 
z"/>
<path fill="#E0EBFC" opacity="1.000000" stroke="none" 
	d="
M39.487171,49.369610 
	C38.737255,49.454479 37.987339,49.539352 37.077217,49.363640 
	C36.951359,48.047092 36.985703,46.991127 37.340240,45.490143 
	C38.070316,45.073101 38.480194,45.101074 38.927376,45.557468 
	C39.138840,47.113792 39.313004,48.241703 39.487171,49.369610 
z"/>
<path fill="#4D72D0" opacity="1.000000" stroke="none" 
	d="
M25.041470,39.992653 
	C25.334686,38.888550 25.605202,37.756401 25.984007,36.282036 
	C26.651144,36.213177 27.209990,36.486534 27.897213,37.167797 
	C27.644228,38.367825 27.262867,39.159946 26.881508,39.952068 
	C26.881508,39.952068 26.957668,39.943810 26.622837,39.802643 
	C25.841021,39.759888 25.394033,39.858299 24.947046,39.956707 
	C24.947046,39.956707 25.018768,39.964615 25.041470,39.992653 
z"/>
<path fill="#E9C6CF" opacity="1.000000" stroke="none" 
	d="
M27.183485,39.841038 
	C27.262867,39.159946 27.644228,38.367825 28.192226,37.268513 
	C28.615868,36.801506 28.805725,36.583275 29.233707,36.229877 
	C29.741653,36.424744 29.944326,36.696365 30.146999,36.967987 
	C29.259821,37.888660 28.372643,38.809334 27.183485,39.841038 
z"/>
<path fill="#6382D6" opacity="1.000000" stroke="none" 
	d="
M36.584179,39.440006 
	C36.101734,38.819111 35.619293,38.198219 35.232727,37.265564 
	C35.328602,36.953804 35.672245,36.954937 35.672245,36.954937 
	C35.672245,36.954937 36.008766,36.908222 36.008766,36.908222 
	C36.458107,37.090275 36.907448,37.272327 37.723198,37.433807 
	C38.089607,37.413235 38.034004,37.528374 37.736649,37.647850 
	C37.309082,38.164738 37.178867,38.562153 36.931282,39.078468 
	C36.813908,39.197365 36.584179,39.440006 36.584179,39.440006 
z"/>
<path fill="#426CD0" opacity="1.000000" stroke="none" 
	d="
M38.890076,45.129051 
	C38.480194,45.101074 38.070316,45.073101 37.355419,45.094902 
	C37.839516,44.709038 38.628624,44.273396 39.703419,43.887775 
	C40.043793,44.192780 40.098488,44.447762 39.842354,44.967342 
	C39.317707,45.197647 39.103893,45.163349 38.890076,45.129051 
z"/>
<path fill="#4E72D0" opacity="1.000000" stroke="none" 
	d="
M38.034004,37.528374 
	C38.034004,37.528374 38.089607,37.413235 38.092731,37.349831 
	C38.525661,36.930119 38.955467,36.573814 39.648586,36.122269 
	C40.109531,36.612869 40.307167,37.198715 40.391117,38.265846 
	C40.144527,38.876530 40.011616,39.005924 39.669796,39.101006 
	C39.460884,39.066696 39.047333,38.975822 38.918266,38.709442 
	C38.537464,38.138165 38.285736,37.833271 38.034004,37.528374 
z"/>
<path fill="#9296CF" opacity="1.000000" stroke="none" 
	d="
M36.080269,36.664291 
	C36.008766,36.908222 35.672245,36.954937 35.672245,36.954937 
	C35.672245,36.954937 35.328602,36.953804 35.208347,36.962440 
	C35.270466,36.424477 35.452839,35.877884 35.635212,35.331287 
	C35.807400,35.694313 35.979584,36.057335 36.080269,36.664291 
z"/>
<path fill="#9296CF" opacity="1.000000" stroke="none" 
	d="
M30.306232,36.802872 
	C29.944326,36.696365 29.741653,36.424744 29.317547,36.027512 
	C29.593229,35.699009 30.090342,35.496113 30.587452,35.293217 
	C30.546789,35.741398 30.506126,36.189575 30.306232,36.802872 
z"/>
<path fill="#E9C6CF" opacity="1.000000" stroke="none" 
	d="
M24.863756,40.345860 
	C25.394033,39.858299 25.841021,39.759888 26.618555,39.764580 
	C26.667820,40.503983 26.386538,41.140278 25.984003,42.104679 
	C25.862751,42.432781 25.394415,42.351646 25.214073,42.196960 
	C24.949308,41.606522 24.864887,41.170769 24.863756,40.345860 
z"/>
<path fill="#6382D6" opacity="1.000000" stroke="none" 
	d="
M39.669029,43.923374 
	C39.409790,43.240662 39.150555,42.557949 38.917488,41.468567 
	C38.943665,41.061901 39.018219,40.983517 39.261990,41.123753 
	C39.713253,41.576180 39.920746,41.888374 40.012035,42.630898 
	C39.820232,43.348610 39.744633,43.635994 39.669029,43.923374 
z"/>
<path fill="#509AD4" opacity="1.000000" stroke="none" 
	d="
M39.721786,43.989574 
	C39.744633,43.635994 39.820232,43.348610 40.301689,42.845543 
	C41.020977,43.014099 41.334404,43.398342 41.647835,43.782585 
	C41.272011,43.897514 40.896187,44.012440 40.228554,44.067318 
	C39.936752,44.007267 39.774548,44.055775 39.721786,43.989574 
z"/>
<path fill="#6382D6" opacity="1.000000" stroke="none" 
	d="
M38.907219,41.101868 
	C38.542965,41.028931 38.215153,40.916023 37.846809,40.489845 
	C37.806278,40.176571 38.082355,39.931828 38.298492,40.046684 
	C38.779697,40.375977 38.947559,40.649971 39.018219,40.983517 
	C39.018219,40.983517 38.943665,41.061901 38.907219,41.101868 
z"/>
<path fill="#6382D6" opacity="1.000000" stroke="none" 
	d="
M37.664024,40.294022 
	C37.275810,40.233982 37.056656,40.027973 36.724243,39.616730 
	C36.584179,39.440006 36.813908,39.197365 37.139740,39.104507 
	C37.465572,39.011650 37.885468,39.030251 37.942719,39.253891 
	C37.999973,39.477531 38.082355,39.931828 38.082355,39.931828 
	C38.082355,39.931828 37.806278,40.176571 37.664024,40.294022 
z"/>
<path fill="#90A9E5" opacity="1.000000" stroke="none" 
	d="
M38.927376,45.557465 
	C39.103893,45.163349 39.317707,45.197647 39.832054,45.358379 
	C40.132587,45.484818 40.091644,45.519398 40.074074,46.000259 
	C40.137280,47.409958 40.218052,48.338795 40.298824,49.267632 
	C40.298824,49.267632 39.903221,49.400200 39.695198,49.384903 
	C39.313004,48.241703 39.138840,47.113792 38.927376,45.557465 
z"/>
<path fill="#509AD4" opacity="1.000000" stroke="none" 
	d="
M40.371181,49.273479 
	C40.218052,48.338795 40.137280,47.409958 40.048546,46.008408 
	C40.267036,46.521000 40.493481,47.506302 40.652069,48.867493 
	C40.584206,49.243374 40.443539,49.279327 40.371181,49.273479 
z"/>
<path fill="#E9C6CF" opacity="1.000000" stroke="none" 
	d="
M23.895611,42.702793 
	C24.052391,43.025627 24.041128,43.476971 24.006130,43.699966 
	C23.406063,44.024681 22.840994,44.126408 22.275925,44.228130 
	C22.763561,43.612072 23.251198,42.996017 23.895611,42.702793 
z"/>
<path fill="#E9C6CF" opacity="1.000000" stroke="none" 
	d="
M24.685574,41.885014 
	C24.896315,42.307545 24.723852,42.623440 24.264889,43.010406 
	C24.086380,42.647114 24.194376,42.212746 24.685574,41.885014 
z"/>
<path fill="#5376CE" opacity="1.000000" stroke="none" 
	d="
M43.784798,40.610199 
	C44.013565,41.378696 44.077400,41.895283 43.799194,42.639404 
	C42.621365,41.966209 41.785576,41.065483 40.962921,39.859062 
	C40.986275,39.349648 40.996498,39.145920 41.006721,38.942196 
	C41.877769,39.414227 42.748817,39.886261 43.784798,40.610199 
z"/>
<path fill="#5376CE" opacity="1.000000" stroke="none" 
	d="
M44.975838,40.755188 
	C44.909431,40.972557 44.708687,40.994137 44.208328,40.971050 
	C44.219639,40.804054 44.530571,40.681725 44.975838,40.755188 
z"/>
<path fill="#4E72D0" opacity="1.000000" stroke="none" 
	d="
M40.961777,38.781113 
	C40.996498,39.145920 40.986275,39.349648 40.723793,39.757835 
	C40.273922,39.686638 40.076313,39.410976 39.878708,39.135315 
	C40.011616,39.005924 40.144527,38.876530 40.484474,38.559998 
	C40.691513,38.372856 40.916832,38.620033 40.961777,38.781113 
z"/>
<path fill="#EEC9CF" opacity="1.000000" stroke="none" 
	d="
M39.669796,39.101006 
	C40.076313,39.410976 40.273922,39.686638 40.710663,40.063526 
	C41.785576,41.065483 42.621365,41.966209 43.725548,43.024807 
	C43.319614,43.441051 42.645283,43.699429 41.809395,43.870193 
	C41.334404,43.398342 41.020977,43.014099 40.417892,42.415215 
	C39.920746,41.888374 39.713253,41.576180 39.261990,41.123753 
	C38.947559,40.649971 38.779697,40.375977 38.298492,40.046684 
	C38.082355,39.931828 37.999973,39.477531 38.233326,39.242878 
	C38.660229,38.997425 38.853779,38.986622 39.047333,38.975822 
	C39.047333,38.975822 39.460884,39.066696 39.669796,39.101006 
z"/>
<path fill="#D5BBCF" opacity="1.000000" stroke="none" 
	d="
M38.918266,38.709442 
	C38.853779,38.986622 38.660229,38.997425 38.176071,39.019238 
	C37.885468,39.030251 37.465572,39.011650 37.257111,38.985611 
	C37.178867,38.562153 37.309082,38.164738 37.736649,37.647850 
	C38.285736,37.833271 38.537464,38.138165 38.918266,38.709442 
z"/>
</svg>