<svg xmlns="http://www.w3.org/2000/svg" width="169" height="153" viewBox="0 0 169 153"><g transform="translate(-300 -230)"><ellipse cx="84.5" cy="18" rx="84.5" ry="18" transform="translate(300 347)" fill="#fcf6f1"/><path d="M79.75,144.08c-26.25-5.53-46.25-25-57.85-56.18a163,163,0,0,1-9.43-43.68L12,35.31,82.22,10.5l70.19,24.81L152,44.22a162.31,162.31,0,0,1-9.42,43.68c-11.6,31.23-31.61,50.65-57.86,56.18l-2.46.52Z" transform="translate(301 219.5)" fill="#f2e0d1"/><path d="M137.82,44.92,82.22,25.27h0L26.62,44.92s3.76,74.46,55.6,85.38h0C134.05,119.38,137.82,44.92,137.82,44.92Z" transform="translate(301.38 219.5)" fill="#fcf6f1"/><g transform="translate(326.892 279.024) rotate(14)"><path d="M608.95-4329.5c4.536-8.184.689-5.79-3.071-3.4l-.1.064A58.853,58.853,0,0,0,610.99-4346c2.271-8.474.207-7.413-2.9-4.564a53.24,53.24,0,0,0,1.457-8.664c.814-9.3-1.711-5.59-4.165-1.884-1.332,2.012-2.642,4.021-3.388,3.957-2.119-.185-7.7-19.808-8.958-5.469a42.567,42.567,0,0,0,.445,10.886c-2.357-3.394-4.743-4.884-7.135,4.045-3.426,12.785-.548,25.032,3.176,28.515-.553,5.558.99,5.394,2.008,5.958a1.331,1.331,0,0,0,.644.137C594.894-4313.085,602.587-4318.02,608.95-4329.5Z" transform="translate(-584.815 4367.866)" fill="#894d20"/><path d="M-376.085,4796.385s5.762-27.192,1.476-33.305" transform="translate(386.941 -4751.506)" fill="none" stroke="#f2e0d1" stroke-linecap="round" stroke-width="1"/><path d="M-382.771,4797.991a13.863,13.863,0,0,0,8.494-3.677" transform="translate(394.067 -4755.307)" fill="none" stroke="#f2e0d1" stroke-linecap="round" stroke-width="1"/><path d="M-384.56,4799.273a22.242,22.242,0,0,0,5.972-5.34c1.19-1.466,2.011-3.944,3.513-6.253" transform="translate(397.313 -4764.161)" fill="none" stroke="#f2e0d1" stroke-linecap="round" stroke-width="1"/><path d="M-383.1,4797.312s2.512-1.774,7.22-9.012" transform="translate(396.837 -4773.02)" fill="none" stroke="#f2e0d1" stroke-linecap="round" stroke-width="1"/><path d="M-367.695,4791.529c-8.022-9.778-5.738-18.8-5.738-18.8" transform="translate(379.546 -4752.681)" fill="none" stroke="#f2e0d1" stroke-linecap="round" stroke-width="1"/></g><g transform="translate(110 -110)"><path d="M588.234-4324.181c-5.164-9.318-.785-6.592,3.5-3.866l.115.073a67.015,67.015,0,0,1-5.934-15c-2.585-9.647-.236-8.44,3.3-5.2a60.627,60.627,0,0,1-1.659-9.865c-.926-10.585,1.948-6.364,4.742-2.145,1.516,2.29,3.008,4.579,3.858,4.5,2.413-.211,8.772-22.552,10.2-6.227a48.463,48.463,0,0,1-.507,12.395c2.684-3.864,5.4-5.561,8.124,4.606,3.9,14.557.624,28.5-3.616,32.466.63,6.328-1.127,6.141-2.286,6.784a1.514,1.514,0,0,1-.733.156C604.237-4305.495,595.478-4311.113,588.234-4324.181Z" transform="translate(-391.952 4749.768)" fill="#f89622"/><path d="M-372.6,4801s-6.56-30.959-1.68-37.92" transform="translate(584 -4368)" fill="none" stroke="#f2e0d1" stroke-linecap="round" stroke-width="1"/><path d="M-373.1,4798.5a15.786,15.786,0,0,1-9.671-4.186" transform="translate(584 -4368)" fill="none" stroke="#f2e0d1" stroke-linecap="round" stroke-width="1"/><path d="M-373.76,4800.88a25.326,25.326,0,0,1-6.8-6.08c-1.355-1.669-2.29-4.491-4-7.12" transform="translate(583 -4379)" fill="none" stroke="#f2e0d1" stroke-linecap="round" stroke-width="1"/><path d="M-374.88,4798.56s-2.86-2.021-8.22-10.26" transform="translate(583 -4389)" fill="none" stroke="#f2e0d1" stroke-linecap="round" stroke-width="1"/><path d="M-373.733,4794.133c9.133-11.133,6.533-21.4,6.533-21.4" transform="translate(584 -4368)" fill="none" stroke="#f2e0d1" stroke-linecap="round" stroke-width="1"/></g><path d="M-5,0H37c-5,28.482-9.477,32.176-15,32.176H10C4.477,32.176,0,28.482-5,0Z" transform="translate(310 330.824)" fill="#eac9aa"/><rect width="48" height="9" rx="4.5" transform="translate(302 323)" fill="#eac9aa"/><path d="M618-4335.824h-1.782c3.727-3.566,6.743-12.873,9.781-30.176H591.358c-.124-.682-.244-1.354-.358-2h42c-2.357,13.428-4.678,21.934-7.3,26.769C623.116-4336.479,620.472-4335.824,618-4335.824Z" transform="translate(-286 4698.824)" fill="#ddad80"/></g></svg>