<svg xmlns="http://www.w3.org/2000/svg" width="169" height="165.973" viewBox="0 0 169 165.973"><g transform="translate(-510 -217.027)"><ellipse cx="84.5" cy="18" rx="84.5" ry="18" transform="translate(510 347)" fill="#fcf6f1"/><ellipse cx="69.721" cy="69.721" rx="69.721" ry="69.721" transform="translate(524.024 226.624)" fill="#f2e0d1"/><circle cx="56.089" cy="56.089" r="56.089" transform="translate(514.424 296.349) rotate(-45)" fill="#fcf6f1"/><g transform="translate(-20 -110)"><line y2="10" transform="translate(614.5 356.5)" fill="none" stroke="#f2e0d1" stroke-width="4"/><line y2="10" transform="translate(614.5 446.5)" fill="none" stroke="#f2e0d1" stroke-width="4"/></g><g transform="translate(1001 -318) rotate(90)"><line y2="10" transform="translate(614.5 356.5)" fill="none" stroke="#f2e0d1" stroke-width="4"/><line y2="10" transform="translate(614.5 446.5)" fill="none" stroke="#f2e0d1" stroke-width="4"/></g><circle cx="3.5" cy="3.5" r="3.5" transform="translate(591 293)" fill="#ddad80"/><g transform="translate(-127.456 443.578) rotate(-45)"><line y2="10" transform="translate(614.5 356.5)" fill="none" stroke="#f2e0d1" stroke-width="2"/><line y2="10" transform="translate(614.5 446.5)" fill="none" stroke="#f2e0d1" stroke-width="2"/></g><g transform="translate(447.422 -425.456) rotate(45)"><line y2="10" transform="translate(614.5 356.5)" fill="none" stroke="#f2e0d1" stroke-width="2"/><line y2="10" transform="translate(614.5 446.5)" fill="none" stroke="#f2e0d1" stroke-width="2"/></g></g></svg>