<svg xmlns="http://www.w3.org/2000/svg" width="169" height="148.18" viewBox="0 0 169 148.18"><g transform="translate(-89 -234.82)"><ellipse cx="84.5" cy="18" rx="84.5" ry="18" transform="translate(89 347)" fill="#fcf6f1"/><path d="M147.25,111.3c0-9.62-6.79-19.25-15.17-19.25s-15.17,9.63-15.17,19.25,6.79,17.41,15.17,17.41S147.25,120.92,147.25,111.3Z" transform="translate(83.36 204.88)" fill="#894d20"/><path d="M132.08,92.05a11.14,11.14,0,0,0-3.89.73c6.48,2.39,11.27,10.45,11.27,18.52s-4.79,14.83-11.27,16.81a13.23,13.23,0,0,0,3.89.6c8.38,0,15.17-7.79,15.17-17.41S140.46,92.05,132.08,92.05Z" transform="translate(83.36 204.88)" fill="#894d20"/><path d="M58.65,111.3c0-9.62-6.79-19.25-15.17-19.25s-15.16,9.63-15.16,19.25,6.79,17.41,15.16,17.41S58.65,120.92,58.65,111.3Z" transform="translate(83.36 204.88)" fill="#ddad80"/><path d="M43.48,92.05a11.23,11.23,0,0,0-3.89.73c6.49,2.39,11.28,10.45,11.28,18.52s-4.79,14.83-11.28,16.81a13.34,13.34,0,0,0,3.89.6c8.38,0,15.17-7.79,15.17-17.41S51.86,92.05,43.48,92.05Z" transform="translate(83.36 204.88)" fill="#35658d" opacity="0.25"/><path d="M29.84,127.88l3.3,20.44a6,6,0,0,0,5.91,5H49.11a6,6,0,0,0,5.91-5l3.3-20.44Z" transform="translate(83.36 204.88)" fill="#eac9aa"/><path d="M58.32,127.88H29.84l.46,2.83h22l-2.85,17.61a6,6,0,0,1-5.91,5h5.61a6,6,0,0,0,5.91-5l2.84-17.61h0Z" transform="translate(83.36 204.88)" fill="#ddad80"/><path d="M58.64,122H29.52a3,3,0,0,0-3,3h0a3,3,0,0,0,3,3H58.64a3,3,0,0,0,3-3h0A3,3,0,0,0,58.64,122Z" transform="translate(83.36 204.88)" fill="#eac9aa"/><path d="M117.18,127.88l3.3,20.44a6,6,0,0,0,5.9,5h10.07a6,6,0,0,0,5.9-5l3.31-20.44Z" transform="translate(83.36 204.88)" fill="#eac9aa"/><path d="M145.66,127.88H117.18l.45,2.83h22l-2.85,17.61a6,6,0,0,1-5.9,5h5.61a6,6,0,0,0,5.9-5l2.85-17.61h0Z" transform="translate(83.36 204.88)" fill="#ddad80"/><path d="M146,122H116.86a3,3,0,0,0-3,3h0a3,3,0,0,0,3,3H146a3,3,0,0,0,3-3h0A3,3,0,0,0,146,122Z" transform="translate(83.36 204.88)" fill="#eac9aa"/><path d="M116.56,22.08l-65.68-.14a9.31,9.31,0,0,0-9.3,9.27l-.22,112a9.31,9.31,0,0,0,9.26,9.3l65.68.14a9.32,9.32,0,0,0,9.31-9.27l.22-112a9.31,9.31,0,0,0-9.27-9.3Z" transform="translate(87.36 212.88)" fill="#f2e0d1"/><path d="M116,29.75h-7.2a1.82,1.82,0,0,0-1.52.81l-1.7,2.56a9.5,9.5,0,0,1-7.93,4.25L69.76,37.3A9.51,9.51,0,0,1,61.85,33l-1.69-2.57a1.83,1.83,0,0,0-1.51-.82H51.44a1.8,1.8,0,0,0-1.81,1.81L49.41,143a1.82,1.82,0,0,0,1.81,1.82l64.53.13a1.81,1.81,0,0,0,1.81-1.81l.22-111.59A1.82,1.82,0,0,0,116,29.75Z" transform="translate(87.36 212.88)" fill="#fcf6f1"/></g></svg>